# xmcd
# Copyright (C) 1995-1998 Ti Kan
#
# Track frame offsets:
#       150
#       18118
#       35550
#       50567
#       68540
#       84637
#       99228
#       113313
#       126047
#       146963
#       165463
#       183984
#
# Disc length: 2685 seconds
#
# Revision: 0
# Processed by: cddbd v1.5.1PL0 Copyright (c) Steve Scherf et al.
# Submitted via: CD-Transfer v1.0
#
DISCID=910a7b0c
DTITLE=Various Artist - 
DYEAR=03
DGENRE=
TTITLE0=Pema   Let's get loud
TTITLE1=Claudio   Just the two of us
TTITLE2=Katy   Eternal Flame
TTITLE3=Sebastian   Music makes my world go round
TTITLE4=Caroline   Underneath your clothes
TTITLE5=Michele   1000 und 1 Nacht
TTITLE6=Tina   Get the party started
TTITLE7=Martin O.   Father and Son
TTITLE8=Anja-Verouschka   One moment in time
TTITLE9=Piero   E'cosi com'e
TTITLE10=Sabrina   Piece of my heart
TTITLE11=Martin C.   She's like the wind
EXTD=
EXTT0=
EXTT1=
EXTT2=
EXTT3=
EXTT4=
EXTT5=
EXTT6=
EXTT7=
EXTT8=
EXTT9=
EXTT10=
EXTT11=
PLAYORDER=
